#!OML:ASF F:\VICON\USERDATA\INSTALL\Justin_Nancy\Justin_Nancy.ASF
:FULLY-SPECIFIED
:DEGREES
143
root 9.29399 17.4887 -9.35981 0.510147 -9.76056 7.6339
lowerback 5.74992 -2.11222 -7.15864
upperback -0.119085 -3.2549 1.34779
thorax -2.87464 -1.50902 5.6801
lowerneck -16.1863 -3.87731 -9.55734
upperneck 24.544 -4.16138 4.77004
head 10.9114 -2.23939 2.73978
rclavicle -1.98785e-015 1.66979e-014
rhumerus -33.501 -18.5253 -75.2525
rradius 27.7658
rwrist 8.9178
rhand -13.7374 15.8737
rfingers 7.12502
rthumb 12.3823 -13.7396
lclavicle -1.98785e-015 1.66979e-014
lhumerus -23.6118 12.4579 80.7595
lradius 28.9808
lwrist -8.00432
lhand -15.1549 27.208
lfingers 7.12502
lthumb 11.0153 56.899
rfemur -28.6536 -4.75083 18.6951
rtibia 19.8717
rfoot -3.25454 -14.5191
rtoes 4.24641
lfemur 1.2373 3.48741 -30.8444
ltibia 19.891
lfoot -14.1885 2.57837
ltoes -7.56633
144
root 9.25658 17.4948 -9.2446 0.694754 -10.0231 7.50864
lowerback 5.64355 -2.15548 -7.12803
upperback -0.14462 -3.3008 1.43139
thorax -2.83137 -1.53309 5.74867
lowerneck -16.4916 -3.91857 -9.59793
upperneck 24.7195 -4.17727 4.75078
head 11.039 -2.25157 2.7364
rclavicle 7.65321e-015 -1.51076e-014
rhumerus -33.5327 -18.5332 -75.1967
rradius 27.7052
rwrist 8.87906
rhand -13.594 15.9895
rfingers 7.12502
rthumb 12.5205 -13.6154
lclavicle 7.65321e-015 -1.51076e-014
lhumerus -23.382 12.4494 80.7825
lradius 28.7864
lwrist -8.20818
lhand -15.638 26.3039
lfingers 7.12502
lthumb 10.5493 56.0192
rfemur -28.26 -4.79135 19.1337
rtibia 17.7703
rfoot -2.89426 -15.381
rtoes 2.36198
lfemur 1.5584 3.35351 -30.6421
ltibia 19.7636
lfoot -14.1917 2.61375
ltoes -8.2852
145
root 9.22003 17.4988 -9.13319 0.855177 -10.2986 7.34256
lowerback 5.65799 -2.15248 -7.02468
upperback -0.239395 -3.29219 1.48495
thorax -2.94218 -1.52253 5.75006
lowerneck -16.2577 -3.96208 -9.79998
upperneck 24.7211 -4.26755 4.96387
head 11.0114 -2.28983 2.83752
rclavicle 1.65985e-014 -6.36111e-015
rhumerus -33.6282 -19.0322 -74.9847
rradius 27.4184
rwrist 9.11227
rhand -13.4564 16.2155
rfingers 7.12502
rthumb 12.6533 -13.3812
lclavicle 1.65985e-014 -6.36111e-015
lhumerus -23.2127 12.1254 80.7822
lradius 28.5781
lwrist -8.06195
lhand -15.8212 25.5724
lfingers 7.12502
lthumb 10.3726 55.2966
rfemur -27.8297 -4.78864 19.6013
rtibia 15.8682
rfoot -2.61093 -16.1244
rtoes 1.69445
lfemur 1.83452 3.25106 -30.3942
ltibia 19.7733
lfoot -14.2405 2.67873
ltoes -9.02446
146
root 9.18065 17.4948 -9.01889 0.95967 -10.6374 7.44237
lowerback 5.54855 -2.10299 -7.25195
upperback -0.254434 -3.23335 1.49645
thorax -2.89253 -1.49139 5.88165
lowerneck -15.9373 -3.99242 -9.86392
upperneck 24.4592 -4.33018 5.00394
head 10.8594 -2.3202 2.85316
rclavicle -2.43511e-014 5.56597e-015
rhumerus -33.6503 -19.6063 -74.7639
rradius 27.2248
rwrist 9.64286
rhand -13.2387 16.2291
rfingers 7.12502
rthumb 12.8631 -13.3546
lclavicle -2.43511e-014 5.56597e-015
lhumerus -22.9646 12.0494 80.8318
lradius 28.5085
lwrist -8.18052
lhand -15.6849 25.2272
lfingers 7.12502
lthumb 10.5042 54.9447
rfemur -27.4278 -4.49679 19.6932
rtibia 14.2489
rfoot -2.11562 -17.0273
rtoes 1.32536
lfemur 2.02263 3.27028 -30.4369
ltibia 19.8946
lfoot -14.308 2.80794
ltoes -10.0785
147
root 9.1407 17.4884 -8.90335 1.07173 -10.7426 7.54703
lowerback 5.57267 -2.2129 -7.48965
upperback -0.379198 -3.39963 1.55918
thorax -2.99409 -1.56195 6.0981
lowerneck -15.6463 -3.92945 -9.92039
upperneck 24.3057 -4.23917 4.9513
head 10.7386 -2.29261 2.85729
rclavicle 2.18663e-015 2.46493e-014
rhumerus -33.8625 -19.3883 -74.7923
rradius 27.4808
rwrist 9.91212
rhand -13.3617 15.0958
rfingers 7.12502
rthumb 12.7445 -14.4953
lclavicle 2.18663e-015 2.46493e-014
lhumerus -23.0639 12.163 80.8274
lradius 28.6035
lwrist -8.15215
lhand -15.898 24.9944
lfingers 7.12502
lthumb 10.2986 54.7222
rfemur -27.0626 -4.5936 19.8744
rtibia 12.9837
rfoot -1.93136 -18.0605
rtoes 0.850483
lfemur 2.14479 3.28989 -30.4493
ltibia 20.1137
lfoot -14.2038 2.7063
ltoes -11.4418
148
root 9.10099 17.4801 -8.78722 1.14462 -10.692 7.55876
lowerback 5.70333 -2.38381 -7.54242
upperback -0.510219 -3.64503 1.57886
thorax -3.1614 -1.67155 6.17624
lowerneck -15.1544 -3.87761 -10.1065
upperneck 24.0715 -4.21953 5.15801
head 10.5642 -2.2807 2.96808
rclavicle -9.14409e-015 -1.51076e-014
rhumerus -34.1167 -19.1558 -74.8218
rradius 27.3835
rwrist 9.79253
rhand -13.5811 15.4693
rfingers 7.12502
rthumb 12.533 -14.1348
lclavicle -9.14409e-015 -1.51076e-014
lhumerus -23.2694 12.236 80.7164
lradius 28.6878
lwrist -8.24351
lhand -15.9514 24.9686
lfingers 7.12502
lthumb 10.2471 54.699
rfemur -26.7438 -5.02389 20.2801
rtibia 12.1975
rfoot -1.50213 -19.0678
rtoes -0.24714
lfemur 2.28294 3.05006 -30.356
ltibia 20.3707
lfoot -13.9832 2.61234
ltoes -11.8802
149
root 9.06463 17.4726 -8.66755 1.20303 -11.0678 7.56168
lowerback 5.56371 -2.40388 -7.50284
upperback -0.501388 -3.65809 1.57183
thorax -3.07422 -1.68314 6.13847
lowerneck -14.4173 -3.90619 -10.7023
upperneck 23.5632 -4.33892 5.79562
head 10.2763 -2.31962 3.2817
rclavicle 5.66536e-015 -7.15625e-015
rhumerus -34.1718 -19.1428 -74.7825
rradius 27.314
rwrist 9.77339
rhand -13.253 15.8551
rfingers 7.12502
rthumb 12.8493 -13.7294
lclavicle 5.66536e-015 -7.15625e-015
lhumerus -23.291 12.2872 80.6955
lradius 28.5997
lwrist -9.02548
lhand -16.4791 24.4541
lfingers 7.12502
lthumb 9.73789 54.209
rfemur -26.5642 -5.19771 20.6921
rtibia 11.8514
rfoot -0.717973 -19.7241
rtoes -0.702775
lfemur 2.45537 2.96015 -30.3269
ltibia 20.7077
lfoot -13.908 2.74983
ltoes -12.6311
150
root 9.02805 17.4725 -8.54619 1.26063 -11.5709 7.50735
lowerback 5.40264 -2.38305 -7.44729
upperback -0.42232 -3.61077 1.59678
thorax -2.90999 -1.67031 6.11794
lowerneck -14.0445 -3.91715 -11.0234
upperneck 23.2149 -4.39192 6.13579
head 10.0997 -2.33493 3.44877
rclavicle -1.5207e-014 -1.03368e-014
rhumerus -34.0617 -19.2164 -74.7816
rradius 27.2455
rwrist 9.69739
rhand -13.0669 15.9413
rfingers 7.12502
rthumb 13.0288 -13.6318
lclavicle -1.5207e-014 -1.03368e-014
lhumerus -23.1472 12.4424 80.6857
lradius 28.2269
lwrist -10.3942
lhand -17.1033 22.982
lfingers 7.12502
lthumb 9.13563 52.7642
rfemur -26.475 -5.29228 21.1375
rtibia 11.9936
rfoot -0.303642 -20.5533
rtoes -0.0357993
lfemur 2.72327 3.05498 -30.2316
ltibia 21.0621
lfoot -13.9705 2.89227
ltoes -13.8574
151
root 8.99117 17.4735 -8.43309 1.2657 -11.8681 7.37568
lowerback 5.5499 -2.34424 -7.2446
upperback -0.369002 -3.55549 1.585
thorax -2.95832 -1.64541 5.99438
lowerneck -14.2096 -3.99417 -10.9502
upperneck 23.2417 -4.48213 6.06302
head 10.1465 -2.37585 3.39682
rclavicle 1.09332e-014 2.54444e-014
rhumerus -34.112 -19.2298 -74.8472
rradius 27.2053
rwrist 9.69284
rhand -13.3052 15.9659
rfingers 7.12502
rthumb 12.799 -13.6218
lclavicle 1.09332e-014 2.54444e-014
lhumerus -22.9609 12.1945 80.7648
lradius 28.0694
lwrist -10.8098
lhand -17.6212 22.3796
lfingers 7.12502
lthumb 8.63593 52.1829
rfemur -26.4285 -5.629 21.6775
rtibia 12.5905
rfoot -1.35963 -20.7321
rtoes 3.9586
lfemur 3.01289 2.98657 -30.0384
ltibia 21.3922
lfoot -13.8121 3.03892
ltoes -14.9338
152
root 8.95494 17.4637 -8.3176 1.20654 -12.2925 7.49488
lowerback 5.63632 -2.30403 -7.32982
upperback -0.402005 -3.51675 1.53539
thorax -3.04574 -1.62005 5.99423
lowerneck -14.0459 -4.00694 -10.8787
upperneck 23.1624 -4.50476 5.94203
head 10.0845 -2.39542 3.33831
rclavicle -4.25399e-014 -1.59028e-015
rhumerus -34.1919 -18.1561 -75.5463
rradius 27.5275
rwrist 7.31745
rhand -14.8297 14.5076
rfingers 7.12502
rthumb 11.329 -15.1664
lclavicle -4.25399e-014 -1.59028e-015
lhumerus -22.995 12.0372 80.7693
lradius 28.102
lwrist -10.7232
lhand -17.4528 22.2441
lfingers 7.12502
lthumb 8.79839 52.0407
rfemur -26.5548 -6.12297 22.0232
rtibia 13.5651
rfoot -2.84078 -19.7867
rtoes 6.79254
lfemur 3.2599 2.93993 -30.1454
ltibia 21.6996
lfoot -13.542 3.23434
ltoes -17.3129
